<?xml version="1.0" encoding="UTF-8"?>
<svg id="Calque_2" data-name="Calque 2" xmlns="http://www.w3.org/2000/svg" viewBox="0 0 52 54">
  <defs>
    <style>
      .cls-1 {
        fill: #FFF;
      }
    </style>
  </defs>
  <g id="icons">
    <g>
      <path class="cls-1" d="M25.25,41.67c.19,.21,.46,.33,.75,.33,.29,.02,.56-.12,.75-.34,.34-.39,8.48-9.7,12.97-19.99,.99-2.06,1.49-4.25,1.49-6.5,0-8.36-6.84-15.17-15.26-15.17S10.69,6.8,10.69,15.17c0,2.29,.49,4.48,1.45,6.47,4.5,10.32,12.76,19.64,13.11,20.03Zm.7-39.67c7.31,0,13.26,5.91,13.26,13.17,0,1.95-.43,3.85-1.31,5.67-3.6,8.24-9.78,16.05-11.9,18.62-2.15-2.56-8.42-10.38-12.03-18.65-.84-1.76-1.27-3.65-1.27-5.64,0-7.26,5.95-13.17,13.26-13.17Z"/>
      <path class="cls-1" d="M25.95,22.23c3.99,0,7.24-3.25,7.24-7.24s-3.25-7.24-7.24-7.24-7.24,3.25-7.24,7.24,3.25,7.24,7.24,7.24Zm0-12.47c2.89,0,5.24,2.35,5.24,5.24s-2.35,5.24-5.24,5.24-5.24-2.35-5.24-5.24,2.35-5.24,5.24-5.24Z"/>
      <path class="cls-1" d="M51.97,52.75l-6-23c-.08-.31-.3-.56-.6-.68l-5-2-.74,1.86,4.53,1.81,5.32,20.38-10.03-5.01c-.27-.14-.59-.14-.87-.01l-12.58,5.81-12.58-5.81c-.27-.13-.59-.12-.87,.01l-10.03,5.01L7.84,30.74l4.53-1.81-.74-1.86-5,2c-.29,.12-.52,.37-.6,.68L.03,52.75c-.1,.38,.03,.78,.34,1.03,.31,.25,.73,.29,1.08,.12l11.57-5.79,12.56,5.8c.27,.12,.57,.12,.84,0l12.56-5.8,11.57,5.79c.14,.07,.29,.11,.45,.11,.22,0,.45-.08,.63-.22,.3-.25,.44-.65,.34-1.03Z"/>
    </g>
  </g>
</svg>