<?xml version="1.0" encoding="UTF-8"?>
<svg id="Calque_2" data-name="Calque 2" xmlns="http://www.w3.org/2000/svg" viewBox="0 0 36 54">
  <defs>
    <style>
      .cls-1 {
        fill: #FFF;
      }
    </style>
  </defs>
  <g id="icons">
    <g>
      <path class="cls-1" d="M31,0H5C2.24,0,0,2.24,0,5V49c0,2.76,2.24,5,5,5H31c2.76,0,5-2.24,5-5V5c0-2.76-2.24-5-5-5ZM2,9H34v31H2V9ZM5,2H31c1.65,0,3,1.35,3,3v2H2v-2c0-1.65,1.35-3,3-3ZM31,52H5c-1.65,0-3-1.35-3-3v-7H34v7c0,1.65-1.35,3-3,3Z"/>
      <path class="cls-1" d="M20,46h-4c-.55,0-1,.45-1,1s.45,1,1,1h4c.55,0,1-.45,1-1s-.45-1-1-1Z"/>
    </g>
  </g>
</svg>