<?xml version="1.0" encoding="UTF-8"?>
<svg id="Calque_2" data-name="Calque 2" xmlns="http://www.w3.org/2000/svg" viewBox="0 0 54 42">
  <defs>
    <style>
      .cls-1 {
        fill: #FFF;
      }
    </style>
  </defs>
  <g id="icons">
    <g>
      <path class="cls-1" d="M49,0H5C2.24,0,0,2.24,0,5V37c0,2.76,2.24,5,5,5H49c2.76,0,5-2.24,5-5V5c0-2.76-2.24-5-5-5Zm3,37c0,1.65-1.35,3-3,3H5c-1.65,0-3-1.35-3-3V5c0-1.65,1.35-3,3-3H49c1.65,0,3,1.35,3,3V37Z"/>
      <path class="cls-1" d="M48.35,4.24L29.37,20.63c-1.29,1.11-3.46,1.11-4.75,0L5.65,4.24c-.42-.36-1.05-.32-1.41,.1-.36,.42-.31,1.05,.1,1.41L23.32,22.14c1.01,.88,2.35,1.31,3.68,1.31s2.67-.44,3.68-1.31L49.65,5.76c.42-.36,.46-.99,.1-1.41-.36-.42-1-.46-1.41-.1Z"/>
    </g>
  </g>
</svg>