<?xml version="1.0" encoding="UTF-8"?>
<svg id="Calque_2" data-name="Calque 2" xmlns="http://www.w3.org/2000/svg" viewBox="0 0 54 54">
  <defs>
    <style>
      .cls-1 {
        fill: #fff;
      }
    </style>
  </defs>
  <g id="icons">
    <g>
      <path class="cls-1" d="M49,0H5C2.24,0,0,2.24,0,5V38c0,2.76,2.24,5,5,5H49c2.76,0,5-2.24,5-5V5c0-2.76-2.24-5-5-5ZM5,2H49c1.65,0,3,1.35,3,3V31H2V5c0-1.65,1.35-3,3-3ZM49,41H5c-1.65,0-3-1.35-3-3v-5H52v5c0,1.65-1.35,3-3,3Z"/>
      <path class="cls-1" d="M35,47.65v-2.65h-2v3c0,.23,.08,.45,.22,.62l2.7,3.38H18.08l2.7-3.38c.14-.18,.22-.4,.22-.62v-3h-2v2.65l-2.53,3.16c-.58,.72-.73,1.51-.42,2.16,.31,.65,1.02,1.03,1.95,1.03h18c.92,0,1.63-.37,1.95-1.03,.31-.65,.16-1.44-.42-2.16l-2.53-3.16Z"/>
    </g>
  </g>
</svg>