<?xml version="1.0" encoding="UTF-8"?>
<svg id="Calque_2" data-name="Calque 2" xmlns="http://www.w3.org/2000/svg" viewBox="0 0 49.66 54.04">
  <defs>
    <style>
      .cls-1 {
        fill: #fff;
      }
    </style>
  </defs>
  <g id="icons">
    <g>
      <path class="cls-1" d="M48.67,46.91c-.66-2.16-4.21-3.98-7.64-5.73-.9-.46-1.78-.91-2.53-1.33-.48-.27-1.09-.1-1.36,.38-.27,.48-.1,1.09,.38,1.36,.78,.44,1.67,.89,2.6,1.37,2.63,1.34,6.22,3.18,6.63,4.53,.85,2.81,.9,3.21,.9,3.97,0,.27-.05,.4-.08,.43-.2,.19-1.15,.16-1.79,.14-.31-.01-.63-.02-.96-.02H4.83c-.24,0-.48,0-.72,0-.74,.01-1.76,.03-2-.21-.06-.06-.09-.19-.1-.38,.08-.37,.38-1.7,.97-3.97,.45-1.75,4.9-4.28,13.17-7.5,.2-.07,2.01-.7,3.01-2.04,.33-.44,.24-1.07-.2-1.4-.44-.33-1.07-.24-1.4,.2-.53,.71-1.66,1.21-2.09,1.36-6.67,2.6-13.6,5.68-14.43,8.88C.32,49.71,.03,51.07,.02,51.12c-.01,.07-.02,.14-.02,.21,0,.8,.24,1.44,.71,1.9,.84,.83,2.1,.8,3.44,.78,.22,0,.45,0,.68,0H44.83c.3,0,.6,.01,.89,.02,.29,.01,.57,.02,.85,.02,.93,0,1.78-.11,2.4-.72,.46-.44,.69-1.07,.69-1.87,0-1.05-.1-1.63-.98-4.55Z"/>
      <path class="cls-1" d="M8.83,30h3c.58,0,1.05-.18,1.4-.53,.6-.61,.6-1.48,.6-2.32v-.1c.16,.11,.33,.2,.5,.27,.54,1.35,1.15,2.31,1.8,3.33,.18,.29,.37,.58,.55,.88,.78,1.28,1.57,2.17,2.42,2.76,.11,.09,2.7,2.2,5.68,2.24,.11,.02,.29,.03,.52,.03,.99,0,3.02-.3,5.47-2.33,.78-.6,1.48-1.44,2.22-2.66,.2-.32,.39-.63,.59-.94,.63-.98,1.27-1.99,1.82-3.35,.14-.06,.28-.14,.41-.23v.09c0,.84,0,1.72,.6,2.32,.12,.12,.25,.21,.39,.28-.07,2.35-.65,6.92-2.86,7.7-.49-.34-1.07-.54-1.71-.54-.23,0-.47,.03-.69,.08l-4.86,1.16c-1.61,.38-2.61,2-2.22,3.61,.32,1.36,1.52,2.31,2.92,2.31,.23,0,.47-.03,.69-.08l4.86-1.16c1.61-.38,2.61-2,2.22-3.61,0-.03-.02-.06-.03-.09,3.09-1.59,3.6-6.83,3.67-9.13h2.01c1.36,0,3.3-.98,4.02-2.46,1.31-2.88,1.31-6.19-.01-9.1-.71-1.46-2.65-2.44-4.01-2.44h-.02C40.54,7.13,33.49,0,24.83,0S9.11,7.13,8.85,16h-.02c-1.36,0-3.3,.98-4.02,2.46-1.31,2.88-1.31,6.19,.01,9.1,.71,1.46,2.65,2.44,4.01,2.44Zm23.66,10.89l-4.86,1.16c-.53,.12-1.08-.22-1.2-.74-.13-.54,.21-1.08,.74-1.2l4.86-1.16c.08-.02,.15-.03,.23-.03,.46,0,.87,.32,.98,.77,.13,.54-.21,1.08-.74,1.2Zm2.53-15.84c-.14,.26-.4,.42-.5,.44-.36,.05-.67,.3-.8,.64-.52,1.4-1.15,2.38-1.81,3.43-.2,.32-.41,.64-.61,.97-.61,1-1.16,1.67-1.76,2.13-2.58,2.14-4.41,1.89-4.47,1.88-.06-.01-.13-.02-.19-.02-2.29,0-4.47-1.76-4.55-1.83-.68-.47-1.29-1.17-1.92-2.21-.19-.32-.39-.62-.58-.92-.69-1.09-1.29-2.03-1.8-3.45-.13-.37-.52-.63-.91-.66-.1,0-.36-.17-.5-.43-.16-.3-.46-.47-.78-.5v-3.55h0c.54,0,.96-.3,.97-.85,0-.03,.06-3.09,1.43-6.26,1.76-4.09,4.69-6.16,8.82-6.16,9.97,0,10,11.71,10,12.21,0,.55,.78,.99,.78,.99v3.62c-.33,.02-.64,.19-.81,.5Zm8.01-5.77c1.07,2.36,1.07,5.06,.01,7.4-.35,.71-1.51,1.32-2.21,1.32h-2.97c-.03-.21-.03-.58-.03-.84v-8.31c0-.26,0-.64,.03-.85h2.97c.71,0,1.87,.61,2.2,1.29ZM24.83,2c7.56,0,13.72,6.24,13.98,14h-.98c-.46,0-.85,.12-1.17,.34-.82-4.22-3.4-10.67-11.51-10.67s-10.89,6.7-11.84,10.97c-.03-.04-.06-.08-.09-.11-.35-.35-.82-.53-1.4-.53h-.98c.26-7.76,6.42-14,13.98-14ZM6.62,19.32c.35-.71,1.51-1.32,2.21-1.32h2.97c.03,.21,.03,.58,.03,.84v8.31c0,.26,0,.64-.03,.84h-2.97c-.71,0-1.87-.61-2.2-1.29-1.07-2.36-1.07-5.06-.01-7.4Z"/>
    </g>
  </g>
</svg>