<?xml version="1.0" encoding="UTF-8"?>
<svg id="Calque_2" data-name="Calque 2" xmlns="http://www.w3.org/2000/svg" viewBox="0 0 26.88 26.88">
  <defs>
    <style>
      .cls-1 {
        fill: #fff;
      }
    </style>
  </defs>
  <g id="Isolation_Mode" data-name="Isolation Mode">
    <path class="cls-1" d="M26.21,0H.67C.3,0,0,.3,0,.67V26.21c0,.37,.3,.67,.67,.67H26.21c.37,0,.68-.3,.68-.67V.67c0-.37-.3-.67-.68-.67Zm-.67,25.53H1.6L5.97,12.16l4.34,7.06c.2,.32,.61,.42,.93,.22,.08-.05,.15-.11,.2-.19l7.46-9.26,1.31,1.09c.09,.09,.22,.16,.36,.18,.37,.06,.71-.18,.78-.55l.43-2.46,.43-2.46c.02-.12,.01-.23-.03-.35-.13-.35-.52-.53-.86-.4l-2.35,.86-2.35,.86h0c-.11,.04-.21,.11-.29,.2-.24,.29-.2,.71,.09,.95l1.46,1.21-6.9,8.57-4.61-7.48h0c-.08-.13-.21-.24-.37-.29-.35-.11-.73,.08-.85,.43L1.35,21.97V1.35H25.53V25.53Zm-6.34-17.04l-.15-.12s-.03-.02-.04-.03l-.84-.7,1.25-.46,1.25-.46-.23,1.31-.23,1.32-.95-.79s-.02-.02-.03-.03h0l-.04-.04Z"/>
  </g>
</svg>