<?xml version="1.0" encoding="UTF-8"?>
<svg id="Calque_2" data-name="Calque 2" xmlns="http://www.w3.org/2000/svg" viewBox="0 0 46.18 54">
  <defs>
    <style>
      .cls-1 {
        fill: #fff;
      }
    </style>
  </defs>
  <g id="icons">
    <path class="cls-1" d="M39.94,26.11c-.39-.58-.39-1.64,0-2.22l5.78-8.67c.5-.75,.59-1.56,.25-2.2-.35-.65-1.06-1.02-1.97-1.02h-12c-.55,0-1,.45-1,1s.45,1,1,1h12s.09,0,.12,0c-.02,.03-.04,.06-.06,.1l-5.78,8.67c-.83,1.24-.83,3.19,0,4.44l5.78,8.67s.05,.07,.06,.1c-.03,0-.07,0-.12,0H23l4-3c1.14-.85,2-2.57,2-4V6c0-1.65-1.35-3-3-3H2V1c0-.55-.45-1-1-1S0,.45,0,1V53c0,.55,.45,1,1,1s1-.45,1-1V31H22c.55,0,1-.45,1-1s-.45-1-1-1H2V5H26c.55,0,1,.45,1,1V29c0,.79-.57,1.93-1.2,2.4l-4.8,3.6c-1.08,.81-1.02,1.58-.89,1.96,.13,.39,.55,1.04,1.89,1.04h22c.91,0,1.62-.37,1.97-1.02,.35-.65,.26-1.45-.25-2.2l-5.78-8.67Z"/>
  </g>
</svg>